<svg xmlns="http://www.w3.org/2000/svg" xmlns:xlink="http://www.w3.org/1999/xlink" width="100" zoomAndPan="magnify" viewBox="0 0 75 74.999997" height="100" preserveAspectRatio="xMidYMid meet" version="1.0"><rect x="-7.5" width="90" fill="#ffffff" y="-7.5" height="89.999996" fill-opacity="1"/><rect x="-7.5" width="90" fill="#ffffff" y="-7.5" height="89.999996" fill-opacity="1"/><path fill="#000000" d="M 32.9375 5.328125 L 5.625 5.328125 L 5.625 23.632812 L 32.9375 23.632812 Z M 69.375 51.074219 L 42.0625 51.074219 L 42.0625 69.375 L 69.375 69.375 Z M 72.648438 46.503906 C 73.386719 47.03125 73.960938 47.699219 74.375 48.503906 C 74.789062 49.3125 74.996094 50.167969 74.996094 51.074219 L 74.996094 69.375 C 74.996094 69.746094 74.960938 70.109375 74.890625 70.472656 C 74.820312 70.835938 74.714844 71.1875 74.574219 71.527344 C 74.433594 71.867188 74.257812 72.195312 74.054688 72.5 C 73.851562 72.808594 73.617188 73.09375 73.355469 73.355469 C 73.097656 73.617188 72.8125 73.851562 72.503906 74.058594 C 72.199219 74.265625 71.875 74.4375 71.53125 74.582031 C 71.191406 74.726562 70.839844 74.832031 70.476562 74.90625 C 70.113281 74.980469 69.746094 75.019531 69.375 75.019531 L 42.0625 75.019531 C 41.152344 75.015625 40.296875 74.808594 39.488281 74.390625 C 38.679688 73.976562 38.011719 73.398438 37.484375 72.664062 C 36.964844 73.402344 36.304688 73.980469 35.5 74.394531 C 34.699219 74.8125 33.84375 75.019531 32.9375 75.019531 L 5.625 75.019531 C 5.253906 75.019531 4.886719 74.980469 4.523438 74.90625 C 4.160156 74.832031 3.808594 74.726562 3.46875 74.582031 C 3.125 74.4375 2.800781 74.265625 2.496094 74.058594 C 2.1875 73.851562 1.902344 73.617188 1.644531 73.355469 C 1.382812 73.09375 1.148438 72.808594 0.945312 72.5 C 0.742188 72.195312 0.566406 71.867188 0.425781 71.527344 C 0.285156 71.1875 0.179688 70.835938 0.109375 70.472656 C 0.0390625 70.109375 0.00390625 69.746094 0.00390625 69.375 L 0.00390625 32.769531 C 0.0078125 31.867188 0.214844 31.015625 0.621094 30.210938 C 1.027344 29.40625 1.597656 28.738281 2.324219 28.199219 C 1.59375 27.667969 1.023438 26.996094 0.617188 26.191406 C 0.207031 25.386719 0.00390625 24.535156 0.00390625 23.632812 L 0.00390625 5.328125 C 0.00390625 4.960938 0.0390625 4.59375 0.109375 4.230469 C 0.179688 3.871094 0.285156 3.519531 0.425781 3.175781 C 0.566406 2.835938 0.742188 2.511719 0.945312 2.203125 C 1.148438 1.894531 1.382812 1.609375 1.644531 1.347656 C 1.902344 1.085938 2.1875 0.851562 2.496094 0.644531 C 2.800781 0.441406 3.125 0.265625 3.46875 0.121094 C 3.808594 -0.0195312 4.160156 -0.128906 4.523438 -0.203125 C 4.886719 -0.277344 5.253906 -0.3125 5.625 -0.316406 L 32.9375 -0.316406 C 33.839844 -0.316406 34.691406 -0.109375 35.492188 0.300781 C 36.296875 0.710938 36.960938 1.28125 37.484375 2.011719 C 38.019531 1.285156 38.691406 0.714844 39.496094 0.304688 C 40.300781 -0.105469 41.15625 -0.3125 42.0625 -0.316406 L 69.375 -0.316406 C 69.746094 -0.3125 70.113281 -0.277344 70.476562 -0.203125 C 70.839844 -0.128906 71.191406 -0.0195312 71.53125 0.121094 C 71.875 0.265625 72.199219 0.441406 72.503906 0.644531 C 72.8125 0.851562 73.097656 1.085938 73.355469 1.347656 C 73.617188 1.609375 73.851562 1.894531 74.054688 2.203125 C 74.257812 2.511719 74.433594 2.835938 74.574219 3.175781 C 74.714844 3.519531 74.820312 3.871094 74.890625 4.230469 C 74.960938 4.59375 74.996094 4.960938 74.996094 5.328125 L 74.996094 41.933594 C 74.988281 42.839844 74.78125 43.691406 74.367188 44.496094 C 73.953125 45.300781 73.382812 45.972656 72.648438 46.503906 Z M 38.558594 46.648438 C 38.617188 46.589844 38.683594 46.542969 38.761719 46.503906 C 38.699219 46.445312 38.632812 46.398438 38.558594 46.359375 Z M 36.414062 28.347656 L 36.414062 28.054688 C 36.355469 28.113281 36.296875 28.140625 36.238281 28.199219 C 36.296875 28.257812 36.355469 28.289062 36.414062 28.347656 Z M 42.0625 5.328125 L 69.375 5.328125 L 69.375 41.933594 L 42.0625 41.933594 Z M 32.9375 32.769531 L 5.625 32.769531 L 5.625 69.375 L 32.9375 69.375 Z M 32.9375 32.769531 " fill-opacity="1" fill-rule="evenodd"/></svg>