<svg xmlns="http://www.w3.org/2000/svg" xmlns:xlink="http://www.w3.org/1999/xlink" width="100" zoomAndPan="magnify" viewBox="0 0 75 74.999997" height="100" preserveAspectRatio="xMidYMid meet" version="1.0"><rect x="-7.5" width="90" fill="#ffffff" y="-7.5" height="89.999996" fill-opacity="1"/><rect x="-7.5" width="90" fill="#ffffff" y="-7.5" height="89.999996" fill-opacity="1"/><path fill="#000000" d="M 75 28.683594 L 75 25.867188 L 50.921875 0 L 46.722656 0 Z M 75 28.683594 " fill-opacity="1" fill-rule="nonzero"/><path fill="#000000" d="M 75 18.824219 L 75 14.925781 L 65.222656 0 L 61.890625 0 Z M 75 18.824219 " fill-opacity="1" fill-rule="nonzero"/><path fill="#000000" d="M 0 4.578125 L 75 41.089844 L 75 39.140625 L 0 0 Z M 0 4.578125 " fill-opacity="1" fill-rule="nonzero"/><path fill="#000000" d="M 75 2.574219 L 75 0 L 73.808594 0 Z M 75 2.574219 " fill-opacity="1" fill-rule="nonzero"/><path fill="#000000" d="M 75 56.390625 L 0 71.453125 L 0 75 L 1.542969 75 L 75 58.097656 Z M 75 56.390625 " fill-opacity="1" fill-rule="nonzero"/><path fill="#000000" d="M 75 35.644531 L 75 33.371094 L 31.175781 0 L 25.378906 0 Z M 75 35.644531 " fill-opacity="1" fill-rule="nonzero"/><path fill="#000000" d="M 75 67.824219 L 75 65.710938 L 59.453125 75 L 63.679688 75 Z M 75 67.824219 " fill-opacity="1" fill-rule="nonzero"/><path fill="#000000" d="M 75 45.71875 L 75 43.933594 L 0 19.828125 L 0 23.890625 Z M 75 45.71875 " fill-opacity="1" fill-rule="nonzero"/><path fill="#000000" d="M 75 62.59375 L 75 60.753906 L 38.054688 75 L 45.339844 75 Z M 75 62.59375 " fill-opacity="1" fill-rule="nonzero"/><path fill="#000000" d="M 75 74.324219 L 75 71.804688 L 71.261719 75 L 74.242188 75 Z M 75 74.324219 " fill-opacity="1" fill-rule="nonzero"/><path fill="#000000" d="M 75 53.953125 L 75 52.300781 L 0 54.441406 L 0 58.179688 Z M 75 53.953125 " fill-opacity="1" fill-rule="nonzero"/><path fill="#000000" d="M 75 49.917969 L 75 48.210938 L 0 37.566406 L 0 41.359375 Z M 75 49.917969 " fill-opacity="1" fill-rule="nonzero"/></svg>