<svg xmlns="http://www.w3.org/2000/svg" xmlns:xlink="http://www.w3.org/1999/xlink" width="100" zoomAndPan="magnify" viewBox="0 0 75 74.999997" height="100" preserveAspectRatio="xMidYMid meet" version="1.0"><defs><clipPath id="19bfe5d507"><path d="M 0 10.796875 L 75 10.796875 L 75 67.796875 L 0 67.796875 Z M 0 10.796875 " clip-rule="nonzero"/></clipPath></defs><rect x="-7.5" width="90" fill="#ffffff" y="-7.5" height="89.999996" fill-opacity="1"/><rect x="-7.5" width="90" fill="#ffffff" y="-7.5" height="89.999996" fill-opacity="1"/><g clip-path="url(#19bfe5d507)"><path fill="#040606" d="M 50.527344 63.226562 C 49.328125 63.226562 48.359375 64.191406 48.359375 65.402344 C 48.359375 66.597656 49.328125 67.582031 50.527344 67.582031 C 51.726562 67.582031 52.695312 66.597656 52.695312 65.402344 C 52.695312 64.191406 51.726562 63.226562 50.527344 63.226562 Z M 24.53125 63.226562 C 23.332031 63.226562 22.363281 64.191406 22.363281 65.402344 C 22.363281 66.597656 23.332031 67.582031 24.53125 67.582031 C 25.730469 67.582031 26.699219 66.597656 26.699219 65.402344 C 26.699219 64.191406 25.730469 63.226562 24.53125 63.226562 Z M 37.53125 63.226562 C 36.332031 63.226562 35.363281 64.191406 35.363281 65.402344 C 35.363281 66.597656 36.332031 67.582031 37.53125 67.582031 C 38.726562 67.582031 39.695312 66.597656 39.695312 65.402344 C 39.695312 64.191406 38.726562 63.226562 37.53125 63.226562 Z M 72.195312 19.691406 L 72.195312 45.8125 L 76.53125 45.8125 L 76.53125 19.691406 Z M 63.53125 50.167969 L 67.859375 50.167969 L 67.859375 15.335938 L 63.53125 15.335938 Z M 15.863281 54.515625 L 59.195312 54.515625 L 59.195312 10.988281 L 15.863281 10.988281 Z M 7.191406 50.167969 L 11.527344 50.167969 L 11.527344 15.335938 L 7.191406 15.335938 Z M -1.46875 19.691406 L 2.863281 19.691406 L 2.863281 45.8125 L -1.46875 45.8125 L -1.46875 19.691406 " fill-opacity="1" fill-rule="nonzero"/></g></svg>